<svg version="1.1" viewBox="0.0 0.0 390.5826771653543 161.57742782152232" fill="none" stroke="none" stroke-linecap="square" stroke-miterlimit="10" xmlns:xlink="http://www.w3.org/1999/xlink" xmlns="http://www.w3.org/2000/svg"><clipPath id="p.0"><path d="m0 0l390.58267 0l0 161.57742l-390.58267 0l0 -161.57742z" clip-rule="nonzero"/></clipPath><g clip-path="url(#p.0)"><path fill="#000000" fill-opacity="0.0" d="m0 0l390.58267 0l0 161.57742l-390.58267 0z" fill-rule="evenodd"/><path fill="#24384a" d="m431.6003 89.396065l0 0c-19.190155 34.439346 -75.855804 58.524254 -141.478 60.133156c-65.62219 1.608902 -125.983536 -19.606766 -150.70514 -52.96949l41.77011 -9.30175l0 0c21.756805 15.600418 63.889023 24.86998 108.51315 23.874092c44.624146 -0.9958801 83.911285 -12.082481 101.18558 -28.55397z" fill-rule="evenodd"/><path fill="#24384a" d="m-61.608925 105.61155l256.18896 0l0 201.82678l-256.18896 0z" fill-rule="evenodd"/><path fill="#24384a" d="m-47.99475 131.44095l256.18896 0l0 176.0l-256.18896 0z" fill-rule="evenodd"/><path fill="#24384a" d="m26.845144 156.30971l256.18896 0l0 151.11812l-256.18896 0z" fill-rule="evenodd"/><path fill="#24384a" d="m155.09448 124.480316l256.189 0l0 170.14172l-256.189 0z" fill-rule="evenodd"/><path fill="#24384a" d="m400.15747 147.87665l76.09451 0l0 155.33856l-76.09451 0z" fill-rule="evenodd"/><path fill="#24384a" d="m431.4908 123.64042l44.75589 0l0 69.039375l-44.75589 0z" fill-rule="evenodd"/><path fill="#24384a" d="m-83.510254 127.33254c25.791786 -44.283005 102.588425 -71.153 181.5152 -63.509464c78.92678 7.6435356 136.80869 47.556263 136.80869 94.337036l-47.81102 0l0 0c0 -22.30333 -37.32274 -41.643776 -89.94777 -46.610474c-52.625034 -4.9666977 -106.57047 5.7599487 -130.00848 25.851212z" fill-rule="evenodd"/></g></svg>